<svg xmlns="http://www.w3.org/2000/svg" viewBox="0 0 1160 872" width="1160" height="872" role="img" aria-label="Firmware layers and modules">
<style>
svg{--bg:#f4f6f8;--ink:#17202b;--muted:#566273;--line:#b9c2cd;--surface:#fff;--accent:#0d7a6b;
--b-host:#eceef1;--s-host:#8b95a3;--b-cli:#e5edf9;--s-cli:#4f74b3;--b-test:#f0e9f8;--s-test:#8062ad;
--b-app:#e2f2ee;--s-app:#2f8a78;--b-lib:#f8efe0;--s-lib:#b07a2a;--s-diag:#b0574d;
--b-port:#ebeae6;--s-port:#7c7768;--b-drv:#e7f0e1;--s-drv:#5c8a3f;--b-hw:#e3e7ec;--s-hw:#4a5868;
--st-proven:#2e9d57;--st-restructured:#d08a00;--st-never:#d64545}
@media (prefers-color-scheme:dark){svg{--bg:#11161c;--ink:#e3e8ee;--muted:#9aa6b4;--line:#3a4552;
--surface:#1a2129;--accent:#3cc2ab;--b-host:#1a1f25;--s-host:#6f7b89;--b-cli:#172236;--s-cli:#7fa3e0;
--b-test:#221b2e;--s-test:#a88bd6;--b-app:#12251f;--s-app:#52b8a2;--b-lib:#2a2215;--s-lib:#d6a352;
--s-diag:#d98277;--b-port:#22211d;--s-port:#a8a292;--b-drv:#18231a;--s-drv:#86b865;--b-hw:#1b2027;--s-hw:#8c9aab;
--st-proven:#4cc47a;--st-restructured:#f0b030;--st-never:#f06a6a}}
.bg{fill:var(--bg)} text{fill:var(--ink)}
.b-host{fill:var(--b-host)}.b-cli{fill:var(--b-cli)}.b-test{fill:var(--b-test)}.b-app{fill:var(--b-app)}
.b-lib{fill:var(--b-lib)}.b-port{fill:var(--b-port)}.b-drv{fill:var(--b-drv)}.b-hw{fill:var(--b-hw)}
.bx{fill:var(--surface);stroke-width:1.3}
.s-host{stroke:var(--s-host)}.s-cli{stroke:var(--s-cli)}.s-test{stroke:var(--s-test)}.s-app{stroke:var(--s-app)}
.s-lib{stroke:var(--s-lib)}.s-diag{stroke:var(--s-diag)}.s-port{stroke:var(--s-port)}.s-drv{stroke:var(--s-drv)}.s-hw{stroke:var(--s-hw)}
.dash{stroke-dasharray:5 4}
.t{font:600 12.5px Consolas,"Cascadia Mono","DejaVu Sans Mono",monospace}
.s{font:400 11px "Segoe UI",Arial,"Helvetica Neue",sans-serif;fill:var(--muted)}
.ln{font:600 13px "Segoe UI",Arial,"Helvetica Neue",sans-serif}
.lf{font:400 10.5px Consolas,"Cascadia Mono","DejaVu Sans Mono",monospace;fill:var(--muted)}
.an{font:500 11px "Segoe UI",Arial,"Helvetica Neue",sans-serif;fill:var(--accent)}
.ar,.ar2{fill:none;stroke:var(--accent);stroke-width:1.6;marker-end:url(#arr)}
.ar2{marker-start:url(#arrs)} .ar.dash{stroke-dasharray:5 4}
.ln1{stroke:var(--line);stroke-width:1.3} .mk{fill:var(--accent)}
.st-proven{fill:var(--st-proven)}.st-restructured{fill:var(--st-restructured)}.st-never{fill:var(--st-never)}
.nooff{fill:none;stroke:var(--st-never);stroke-width:1.6}
</style>
<defs>
<marker id="arr" viewBox="0 0 10 10" refX="9" refY="5" markerWidth="7" markerHeight="7" orient="auto"><path class="mk" d="M0 0 L10 5 L0 10 z"/></marker>
<marker id="arrs" viewBox="0 0 10 10" refX="1" refY="5" markerWidth="7" markerHeight="7" orient="auto"><path class="mk" d="M10 0 L0 5 L10 10 z"/></marker>
</defs>
<rect class="bg" x="0" y="0" width="1160" height="872"/>
<rect class="b-host" x="10" y="16" width="1140" height="64" rx="6"/>
<text class="ln" x="24" y="40">Host</text>
<text class="lf" x="24" y="56">tools/</text>
<text class="lf" x="24" y="69">off-target</text>
<rect class="bx s-host dash" x="170" y="26" width="233" height="44" rx="4"/>
<circle class="st-never" cx="392" cy="37" r="5"><title>never ran on silicon; open: the GUI itself in a board-run block - checked by hand 29.09.2026 (DAC cards with force, buffer tile, DISCONNECT during LIVE), not by a block</title></circle>
<text class="t" x="180" y="45">adc_gui.py</text>
<text class="s" x="180" y="59">NiceGUI: stream on / grab, time + FFT</text>
<rect class="bx s-host dash" x="415" y="26" width="233" height="44" rx="4"/>
<circle class="st-never" cx="637" cy="37" r="5"><title>never ran on silicon</title></circle>
<text class="t" x="425" y="45">board_run.py · eval_board.py</text>
<text class="s" x="425" y="59">board run A/B, list of deviations</text>
<rect class="bx s-host dash" x="660" y="26" width="233" height="44" rx="4"/>
<circle class="st-never" cx="882" cy="37" r="5"><title>never ran on silicon; open: a --remote run against the real relay</title></circle>
<text class="t" x="670" y="45">remote.py → bench_client</text>
<text class="s" x="670" y="59">relay: flash, tunnel (socket://)</text>
<rect class="bx s-host dash" x="905" y="26" width="233" height="44" rx="4"/>

<text class="t" x="915" y="45">terminal</text>
<text class="s" x="915" y="59">console by hand</text>
<path class="ar2" d="M300 72 V120"/>
<text class="an" x="312" y="100">UART2 · text commands with ACK/NAK, binary frames (blk, GRAB) with CRC-16</text>
<rect class="b-cli" x="10" y="112" width="1140" height="86" rx="6"/>
<text class="ln" x="24" y="136">Console</text>
<text class="lf" x="24" y="152">src/cli/</text>
<text class="lf" x="24" y="165">src/link/</text>
<rect class="bx s-cli" x="170" y="124" width="400" height="62" rx="4"/>
<circle class="st-restructured" cx="559" cy="135" r="5"><title>ran on silicon, code changed since - to be tested</title></circle>
<text class="t" x="180" y="145">cli.c · console.h</text>
<text class="s" x="180" y="159">27 commands + help in 32 parser slots</text>
<text class="s" x="180" y="173">stream on|off|grab · route list · status · clk · pll</text>
<rect class="bx s-cli" x="582" y="124" width="250" height="62" rx="4"/>
<circle class="st-proven" cx="821" cy="135" r="5"><title>fully tested on silicon</title></circle>
<text class="t" x="592" y="145">cmd_parser.c</text>
<text class="s" x="592" y="159">upstream zabooh/cmd_parser</text>
<text class="s" x="592" y="173">do not edit (MAX_COMMANDS only)</text>
<rect class="bx s-cli" x="844" y="124" width="296" height="62" rx="4"/>
<circle class="st-never" cx="1129" cy="135" r="5"><title>never ran on silicon; open: snap, rate, blk</title></circle><circle class="nooff" cx="1114" cy="135" r="4.5"><title>no off-board test</title></circle>
<text class="t" x="854" y="145">gui_link.c</text>
<text class="s" x="854" y="159">snap · rate · blk</text>
<text class="s" x="854" y="173">stream grab: halt → send → resume</text>
<rect class="b-test" x="10" y="214" width="1140" height="86" rx="6"/>
<text class="ln" x="24" y="238">Tests &amp; meters</text>
<text class="lf" x="24" y="254">src/tests/</text>
<text class="lf" x="24" y="267">src/meter/</text>
<rect class="bx s-test" x="170" y="226" width="233" height="62" rx="4"/>
<circle class="st-restructured" cx="392" cy="237" r="5"><title>ran on silicon, code changed since - to be tested</title></circle><circle class="nooff" cx="377" cy="237" r="4.5"><title>no off-board test</title></circle>
<text class="t" x="180" y="247">chaintest.c</text>
<text class="s" x="180" y="261">chain all S0..S9 · chain run</text>
<text class="s" x="180" y="275">@ log for eval_chain.py</text>
<rect class="bx s-test" x="415" y="226" width="233" height="62" rx="4"/>
<circle class="st-restructured" cx="637" cy="237" r="5"><title>ran on silicon, code changed since - to be tested</title></circle><circle class="nooff" cx="622" cy="237" r="4.5"><title>no off-board test</title></circle>
<text class="t" x="425" y="247">bench.c</text>
<text class="s" x="425" y="261">sweep · test self/clock/clkoff/</text>
<text class="s" x="425" y="275">bursts/rate/matrix/dac</text>
<rect class="bx s-test" x="660" y="226" width="233" height="62" rx="4"/>
<circle class="st-proven" cx="882" cy="237" r="5"><title>fully tested on silicon</title></circle><circle class="nooff" cx="867" cy="237" r="4.5"><title>no off-board test</title></circle>
<text class="t" x="670" y="247">dactest.c</text>
<text class="s" x="670" y="261">judges captured halves</text>
<text class="s" x="670" y="275">against the DAC triangle</text>
<rect class="bx s-test" x="905" y="226" width="233" height="62" rx="4"/>
<circle class="st-restructured" cx="1127" cy="237" r="5"><title>ran on silicon, code changed since - to be tested</title></circle><circle class="nooff" cx="1112" cy="237" r="4.5"><title>no off-board test</title></circle>
<text class="t" x="915" y="247">meter.c</text>
<text class="s" x="915" y="261">selftest · oneshot</text>
<text class="s" x="915" y="275">measure_rate (back-to-back)</text>
<rect class="b-app" x="10" y="316" width="1140" height="120" rx="6"/>
<text class="ln" x="24" y="340">Application</text>
<text class="lf" x="24" y="356">src/app/</text>
<text class="lf" x="24" y="369">src/boards/</text>
<rect class="bx s-app" x="170" y="328" width="150" height="48" rx="4"/>
<circle class="st-restructured" cx="309" cy="339" r="5"><title>ran on silicon, code changed since - to be tested</title></circle>
<text class="t" x="180" y="349">main.c</text>
<text class="s" x="180" y="363">start-up order, loop</text>
<rect class="bx s-app" x="332" y="328" width="330" height="48" rx="4"/>
<circle class="st-restructured" cx="651" cy="339" r="5"><title>ran on silicon, code changed since - to be tested</title></circle>
<text class="t" x="342" y="349">acquisition.c</text>
<text class="s" x="342" y="363">rate (PLL1), variant matrix, stream on/off, chain setup</text>
<rect class="bx s-app" x="674" y="328" width="250" height="48" rx="4"/>
<circle class="st-never" cx="913" cy="339" r="5"><title>never ran on silicon</title></circle>
<text class="t" x="684" y="349">routing.c</text>
<text class="s" x="684" y="363">route_t, resources, routing_apply()</text>
<rect class="bx s-app" x="936" y="328" width="204" height="48" rx="4"/>
<circle class="st-restructured" cx="1129" cy="339" r="5"><title>ran on silicon, code changed since - to be tested; open: the EV17P63A (Nano) profile - its own first run</title></circle>
<text class="t" x="946" y="349">board.h · board_cfg</text>
<text class="s" x="946" y="363">EV74H48A | EV17P63A</text>
<rect class="bx s-app" x="170" y="384" width="440" height="44" rx="4"/>
<circle class="st-restructured" cx="599" cy="395" r="5"><title>ran on silicon, code changed since - to be tested</title></circle>
<text class="t" x="180" y="403">capture.c</text>
<text class="s" x="180" y="417">DMA buffer + guard words · dma0_event() · counters · chain halt/resume</text>
<rect class="bx s-app" x="622" y="384" width="240" height="44" rx="4"/>
<circle class="st-restructured" cx="851" cy="395" r="5"><title>ran on silicon, code changed since - to be tested</title></circle>
<text class="t" x="632" y="403">pingpong.c</text>
<text class="s" x="632" y="417">completed half, missed, block count</text>
<rect class="bx s-app" x="874" y="384" width="266" height="44" rx="4"/>
<circle class="st-never" cx="1129" cy="395" r="5"><title>never ran on silicon</title></circle>
<text class="t" x="884" y="403">port_impl.c</text>
<text class="s" x="884" y="417">port_* → console / fail(), clock_fail_hook()</text>
<rect class="b-lib" x="10" y="452" width="1140" height="86" rx="6"/>
<text class="ln" x="24" y="476">Libraries</text>
<text class="lf" x="24" y="492">src/lib/</text>
<text class="lf" x="24" y="505">src/diag/</text>
<rect class="bx s-lib" x="170" y="464" width="380" height="62" rx="4"/>
<circle class="st-never" cx="539" cy="475" r="5"><title>never ran on silicon</title></circle>
<text class="t" x="180" y="485">frame · crc16 · fmt · stats · tri_eval</text>
<text class="s" x="180" y="499">hardware-free, tested on the host</text>
<text class="s" x="180" y="513">(tests/host, Python cross-checks)</text>
<rect class="bx s-lib dash" x="562" y="464" width="300" height="62" rx="4"/>

<text class="t" x="572" y="485">iir1 · goertzel_f/i · detect · wavegen</text>
<text class="s" x="572" y="499">linked, not called yet</text>
<text class="s" x="572" y="513">(for N+3 / N+4)</text>
<rect class="bx s-diag" x="874" y="464" width="266" height="62" rx="4"/>
<circle class="st-restructured" cx="1129" cy="475" r="5"><title>ran on silicon, code changed since - to be tested</title></circle>
<text class="t" x="884" y="485">diag.c</text>
<text class="s" x="884" y="499">fail() codes, trap, boot record,</text>
<text class="s" x="884" y="513">reg_print(), stack high-water mark</text>
<rect class="b-port" x="10" y="554" width="1140" height="50" rx="6"/>
<text class="ln" x="24" y="578">Port layer</text>
<text class="lf" x="24" y="594">src/port/ · headers</text>
<rect class="bx s-port" x="170" y="562" width="233" height="34" rx="4"/>
<circle class="st-never" cx="392" cy="573" r="5"><title>never ran on silicon</title></circle>
<text class="t" x="180" y="583">log.h · port_log/trace</text>
<rect class="bx s-port" x="415" y="562" width="233" height="34" rx="4"/>
<circle class="st-never" cx="637" cy="573" r="5"><title>never ran on silicon; open: runs only on a fault</title></circle>
<text class="t" x="425" y="583">panic.h · port_panic()</text>
<rect class="bx s-port" x="660" y="562" width="233" height="34" rx="4"/>
<circle class="st-never" cx="882" cy="573" r="5"><title>never ran on silicon</title></circle>
<text class="t" x="670" y="583">wait.h · PORT_WAIT_WHILE()</text>
<rect class="bx s-port" x="905" y="562" width="233" height="34" rx="4"/>
<circle class="st-never" cx="1127" cy="573" r="5"><title>never ran on silicon</title></circle>
<text class="t" x="915" y="583">regs.h · reg_visit_t</text>
<rect class="b-drv" x="10" y="620" width="1140" height="86" rx="6"/>
<text class="ln" x="24" y="644">Drivers</text>
<text class="lf" x="24" y="660">src/drivers/</text>
<text class="lf" x="24" y="673">src/sim/</text>
<rect class="b-hw" x="10" y="722" width="1140" height="86" rx="6"/>
<text class="ln" x="24" y="746">Silicon</text>
<text class="lf" x="24" y="762">dsPIC33AK512</text>
<text class="lf" x="24" y="775">MPS512</text>
<rect class="bx s-drv" x="170" y="632" width="110" height="62" rx="4"/>
<circle class="st-restructured" cx="269" cy="643" r="5"><title>ran on silicon, code changed since - to be tested</title></circle>
<text class="t" x="180" y="653">clock.c</text>
<text class="s" x="180" y="667">PLL1, PLL2</text>
<text class="s" x="180" y="681">CLKGEN6/7/13</text>
<path class="ln1" d="M225 694 V734"/>
<rect class="bx s-hw" x="170" y="734" width="110" height="62" rx="4"/>

<text class="t" x="180" y="755">PLL1 / PLL2</text>
<text class="s" x="180" y="769">PLL1 → ADC path</text>
<text class="s" x="180" y="783">PLL2 → CPU</text>
<rect class="bx s-drv" x="292" y="632" width="110" height="62" rx="4"/>
<circle class="st-restructured" cx="391" cy="643" r="5"><title>ran on silicon, code changed since - to be tested</title></circle>
<text class="t" x="302" y="653">adc.c</text>
<text class="s" x="302" y="667">core 5, burst</text>
<text class="s" x="302" y="681">trigger, calib.</text>
<path class="ln1" d="M347 694 V734"/>
<rect class="bx s-hw" x="292" y="734" width="110" height="62" rx="4"/>

<text class="t" x="302" y="755">ADC</text>
<text class="s" x="302" y="769">core 5, AD5AN3</text>
<text class="s" x="302" y="783">(pin RA8)</text>
<rect class="bx s-drv" x="414" y="632" width="110" height="62" rx="4"/>
<circle class="st-restructured" cx="513" cy="643" r="5"><title>ran on silicon, code changed since - to be tested</title></circle>
<text class="t" x="424" y="653">dma.c</text>
<text class="s" x="424" y="667">channel 0 + ISR</text>
<text class="s" x="424" y="681">sim: sim_dma.c</text>
<path class="ln1" d="M469 694 V734"/>
<rect class="bx s-hw" x="414" y="734" width="110" height="62" rx="4"/>

<text class="t" x="424" y="755">DMA0</text>
<text class="s" x="424" y="769">repeated</text>
<text class="s" x="424" y="783">one-shot → RAM</text>
<rect class="bx s-drv" x="536" y="632" width="110" height="62" rx="4"/>
<circle class="st-restructured" cx="635" cy="643" r="5"><title>ran on silicon, code changed since - to be tested</title></circle>
<text class="t" x="546" y="653">sccp.c</text>
<text class="s" x="546" y="667">SCCP1 as</text>
<text class="s" x="546" y="681">trigger source</text>
<path class="ln1" d="M591 694 V734"/>
<rect class="bx s-hw" x="536" y="734" width="110" height="62" rx="4"/>

<text class="t" x="546" y="755">SCCP1</text>
<text class="s" x="546" y="769">on CLKGEN13</text>
<text class="s" x="546" y="783">160 MHz</text>
<rect class="bx s-drv" x="658" y="632" width="110" height="62" rx="4"/>
<circle class="st-restructured" cx="757" cy="643" r="5"><title>ran on silicon, code changed since - to be tested; open: dac 1 (DACOUT1 = RA1) - the GUI has a DAC1 card; dac ... force (dac_triangle_force()) - checked by hand 29.09.2026, no block sends it</title></circle>
<text class="t" x="668" y="653">dac.c</text>
<text class="s" x="668" y="667">DAC1/2 triangle</text>
<text class="s" x="668" y="681">UREF route</text>
<path class="ln1" d="M713 694 V734"/>
<rect class="bx s-hw" x="658" y="734" width="110" height="62" rx="4"/>

<text class="t" x="668" y="755">DAC2</text>
<text class="s" x="668" y="769">on CLKGEN7</text>
<text class="s" x="668" y="783">400 MHz → RA8</text>
<rect class="bx s-drv" x="780" y="632" width="110" height="62" rx="4"/>
<circle class="st-restructured" cx="879" cy="643" r="5"><title>ran on silicon, code changed since - to be tested</title></circle>
<text class="t" x="790" y="653">uart.c</text>
<text class="s" x="790" y="667">UART2, PPS</text>
<text class="s" x="790" y="681">RX ISR</text>
<path class="ln1" d="M835 694 V734"/>
<rect class="bx s-hw" x="780" y="734" width="110" height="62" rx="4"/>

<text class="t" x="790" y="755">UART2</text>
<text class="s" x="790" y="769">console</text>
<text class="s" x="790" y="783">(COM port)</text>
<rect class="bx s-drv" x="902" y="632" width="110" height="62" rx="4"/>
<circle class="st-proven" cx="1001" cy="643" r="5"><title>fully tested on silicon</title></circle>
<text class="t" x="912" y="653">timebase.c</text>
<text class="s" x="912" y="667">Timer1</text>
<text class="s" x="912" y="681">stopwatch</text>
<path class="ln1" d="M957 694 V734"/>
<rect class="bx s-hw" x="902" y="734" width="110" height="62" rx="4"/>

<text class="t" x="912" y="755">Timer1</text>
<text class="s" x="912" y="769">12.5 MHz</text>
<text class="s" x="912" y="783">on PLL2</text>
<rect class="bx s-drv" x="1024" y="632" width="110" height="62" rx="4"/>
<circle class="st-proven" cx="1123" cy="643" r="5"><title>fully tested on silicon</title></circle>
<text class="t" x="1034" y="660">led.c</text>
<text class="s" x="1034" y="674">LED0</text>
<path class="ln1" d="M1079 694 V734"/>
<rect class="bx s-hw" x="1024" y="734" width="110" height="62" rx="4"/>

<text class="t" x="1034" y="762">LED0</text>
<text class="s" x="1034" y="776">heartbeat</text>
<text class="s" x="20" y="838">Test status, 29.09.2026, after run 20 - no box changed; three later fixes checked by hand (docs/TEST-COVERAGE.md):</text>
<circle class="st-proven" cx="26" cy="854" r="5"/>
<text class="s" x="36" y="858">fully tested on silicon</text>
<circle class="st-restructured" cx="184" cy="854" r="5"/>
<text class="s" x="194" y="858">ran on silicon, code changed since - to be tested</text>
<circle class="st-never" cx="482" cy="854" r="5"/>
<text class="s" x="492" y="858">never ran on silicon</text>
<circle class="nooff" cx="624" cy="854" r="4.5"/>
<text class="s" x="634" y="858">no test without a board</text>
</svg>
